{"title":"Fat Joe ft. Jennifer Lopez - Stressin (2014.HipHop)","uid":11238846,"size":134144666,"categoryP":"video","categoryS":"music_videos","magnet":"?xt=urn:btih:e3fd4d3d1b88bfaad2b5340b035867e6727db1cc&amp;dn=Fat+Joe+ft.+Jennifer+Lopez+-+Stressin+%282014.HipHop%29&amp;tr=udp%3A%2F%2Ftracker.openbittorrent.com%3A80&amp;tr=udp%3A%2F%2Fopen.demonii.com%3A1337&amp;tr=udp%3A%2F%2Ftracker.coppersurfer.tk%3A6969&amp;tr=udp%3A%2F%2Fexodus.desync.com%3A6969","seeders":1,"leechers":1,"uploader":"MeRaDil","files":-1,"time":1413645601,"description":"FAT JOE ft.JENNIFER LOPEZ - STRESSIN\n\n &lt;a href=&quot;\nhttp://gifyu.com/images/FatJoe.png&quot; rel=&quot;nofollow&quot; target=&quot;_NEW&quot;&gt;\nhttp://gifyu.com/images/FatJoe.png&lt;/a&gt;\n\n\nMPEG4 MUSIC VID\n\nGeneral\nComplete name                            : Fat Joe ft. Jennifer Lopez - Stressin'\nFormat                                   : MPEG-4\nFormat profile                           : Base Media\nCodec ID                                 : isom\nFile size                                : 128 MiB\nDuration                                 : 4mn 21s\nOverall bit rate                         : 4 108 Kbps\nMusicVid name                            : Stressin'\nPerformer                                : Fat Joe ft. Jennifer Lopez\nGenre                                    : HipHop\nContentType                              : Music Video\nRecorded date                            : 2014\nCopyright                                : Fat Joe &amp; JLO\nCover                                    : Yes\nRating                                   : ***\nMake                                     : MeRaDil\noday                                     : 17-10-2014 USA\nreleasetime                              : USA - october 17 - 2014\nPart_ID                                  : Sressin'\n\nVideo\nID                                       : 1\nFormat                                   : AVC\nFormat/Info                              : Advanced Video Codec\nFormat profile                           : &lt;a class=&quot;__cf_email__&quot; href=&quot;/cdn-cgi/l/email-protection&quot; data-cfemail=&quot;b8f0d1dfd0f8f48c9688&quot;&gt;[email&amp;#160;protected]&lt;/a&gt;&lt;script cf-hash='f9e31' type=&quot;text/javascript&quot;&gt;\n/* &lt;![CDATA[ */!function(){try{var t=&quot;currentScript&quot;in document?document.currentScript:function(){for(var t=document.getElementsByTagName(&quot;script&quot;),e=t.length;e--;)if(t[e].getAttribute(&quot;cf-hash&quot;))return t[e]}();if(t&amp;&amp;t.previousSibling){var e,r,n,i,c=t.previousSibling,a=c.getAttribute(&quot;data-cfemail&quot;);if(a){for(e=&quot;&quot;,r=parseInt(a.substr(0,2),16),n=2;a.length-n;n+=2)i=parseInt(a.substr(n,2),16)^r,e+=String.fromCharCode(i);e=document.createTextNode(e),c.parentNode.replaceChild(e,c)}}}catch(u){}}();/* ]]&gt; */&lt;/script&gt;\nFormat settings, CABAC                   : Yes\nFormat settings, ReFrames                : 2 frames\nCodec ID                                 : avc1\nCodec ID/Info                            : Advanced Video Coding\nDuration                                 : 4mn 21s\nBit rate                                 : 3 846 Kbps\nWidth                                    : 1 920 pixels\nHeight                                   : 1 080 pixels\nDisplay aspect ratio                     : 16:9\nFrame rate mode                          : Variable\nFrame rate                               : 23.976 fps\nMinimum frame rate                       : 23.974 fps\nMaximum frame rate                       : 23.981 fps\nColor space                              : YUV\nChroma subsampling                       : 4:2:0\nBit depth                                : 8 bits\nScan type                                : Progressive\nBits/(Pixel*Frame)                       : 0.077\nStream size                              : 120 MiB (94%)\n\nAudio\nID                                       : 2\nFormat                                   : AAC\nFormat/Info                              : Advanced Audio Codec\nFormat profile                           : LC\nCodec ID                                 : 40\nDuration                                 : 4mn 21s\nBit rate mode                            : Constant\nBit rate                                 : 256 Kbps\nChannel(s)                               : 2 channels\nChannel positions                        : Front: L R\nSampling rate                            : 44.1 KHz\nCompression mode                         : Lossy\nStream size                              : 7.97 MiB (6%)\n &lt;a href=&quot;\nhttps://thepiratebay.se/user/MeRaDil&quot; rel=&quot;nofollow&quot; target=&quot;_NEW&quot;&gt;\nhttps://thepiratebay.se/user/MeRaDil&lt;/a&gt;\n\nFat Joe * Jennifer Lopez * HipHop * Rap\n\n:)","torrent":{"xt":"urn:btih:e3fd4d3d1b88bfaad2b5340b035867e6727db1cc","amp;dn":"Fat+Joe+ft.+Jennifer+Lopez+-+Stressin+%282014.HipHop%29","amp;tr":["udp%3A%2F%2Ftracker.openbittorrent.com%3A80","udp%3A%2F%2Fopen.demonii.com%3A1337","udp%3A%2F%2Ftracker.coppersurfer.tk%3A6969","udp%3A%2F%2Fexodus.desync.com%3A6969"],"infoHash":"e3fd4d3d1b88bfaad2b5340b035867e6727db1cc","infoHashBuffer":{"type":"Buffer","data":[227,253,77,61,27,136,191,170,210,181,52,11,3,88,103,230,114,125,177,204]},"announce":[],"urlList":[]}}